HIERARCHY
	ROOT pelvis
	{
		OFFSET 0 0 0 
		CHANNELS 6 Xposition Yposition Zposition Zrotation Xrotation Yrotation
		JOINT lfemur_phantom
		{
			OFFSET 0 0.0899607 0 
			CHANNELS 3 Zrotation Xrotation Yrotation
			JOINT lfemur
			{
				OFFSET 0 0 -0.426035 
				CHANNELS 3 Zrotation Xrotation Yrotation
				JOINT ltibia
				{
					OFFSET 0 0 -0.409933 
					CHANNELS 3 Zrotation Xrotation Yrotation
					JOINT lfoot
					{
						OFFSET 0.105631 0 0.00135511 
						CHANNELS 3 Zrotation Xrotation Yrotation
						End Site
						{
							OFFSET 0.0352103 0 0.000451703
						}
					}
				}
			}
		}
		JOINT rfemur_phantom
		{
			OFFSET 0 -0.0899607 0 
			CHANNELS 3 Zrotation Xrotation Yrotation
			JOINT rfemur
			{
				OFFSET 0 0 -0.430137 
				CHANNELS 3 Zrotation Xrotation Yrotation
				JOINT rtibia
				{
					OFFSET 0 0 -0.390377 
					CHANNELS 3 Zrotation Xrotation Yrotation
					JOINT rfoot
					{
						OFFSET 0.106801 0 -0.00121178 
						CHANNELS 3 Zrotation Xrotation Yrotation
						End Site
						{
							OFFSET 0.0356003 0 -0.000403927
						}
					}
				}
			}
		}
		JOINT lowerback_phantom
		{
			OFFSET -0.05 0 0.107967 
			CHANNELS 3 Zrotation Xrotation Yrotation
			JOINT lowerback
			{
				OFFSET 0.0167886 0 0.161801 
				CHANNELS 3 Zrotation Xrotation Yrotation
				JOINT upperback
				{
					OFFSET 0 0 0 
					CHANNELS 3 Zrotation Xrotation Yrotation
					JOINT lclavicle_phantom
					{
						OFFSET 0 0 0.199349 
						CHANNELS 3 Zrotation Xrotation Yrotation
						JOINT lclavicle
						{
							OFFSET 0 0.164108 -0.0174105 
							CHANNELS 3 Zrotation Xrotation Yrotation
							JOINT lhumerus
							{
								OFFSET 0 0 -0.275026 
								CHANNELS 3 Zrotation Xrotation Yrotation
								JOINT lradius
								{
									OFFSET 0 0 -0.248775 
									CHANNELS 3 Zrotation Xrotation Yrotation
									End Site
									{
										OFFSET 0 0 -0.082925
									}
								}
							}
						}
					}
					JOINT rclavicle_phantom
					{
						OFFSET 0 0 0.199349 
						CHANNELS 3 Zrotation Xrotation Yrotation
						JOINT rclavicle
						{
							OFFSET 0 -0.165322 -0.0298984 
							CHANNELS 3 Zrotation Xrotation Yrotation
							JOINT rhumerus
							{
								OFFSET 0 0 -0.273337 
								CHANNELS 3 Zrotation Xrotation Yrotation
								JOINT rradius
								{
									OFFSET 0 0 -0.254845 
									CHANNELS 3 Zrotation Xrotation Yrotation
									End Site
									{
										OFFSET 0 0 -0.0849483
									}
								}
							}
						}
					}
					JOINT LowerNeck_phantom
					{
						OFFSET 0 0 0.199349 
						CHANNELS 3 Zrotation Xrotation Yrotation
						JOINT LowerNeck
						{
							OFFSET -0.0127292 -0.000602123 0.105365 
							CHANNELS 3 Zrotation Xrotation Yrotation
							End Site
							{
								OFFSET -0.00424307 -0.000200708 0.0351217
							}
						}
					}
				}
			}
		}
	}
MOTION
Frames:	10
Frame Time:	0.0166667
-0.00529474 0.870769 -0.00547 80.6971 -62.1205 79.908 17.9987 1.37734 -9.036 12.9185 6.48698 26.2227 -5.10822 -9.97814 17.7104 -2.14667e-006 -2.42659e-006 -0.747517 2.38132 -11.9203 -14.5238 -13.2692 -9.30308 34.4307 1.99685 2.63737 7.84836 -3.67198e-006 1.31961e-006 26.6217 1.17232 -3.07439 10.0847 4.37157 3.20671 4.06794 -0 0 -0 -9.27541 -11.6016 -1.88112 35.7329 28.8796 -23.3921 -3.36229 -4.16045 -129 6.3475e-006 6.46012 -17.9747 2.79195 0.888689 -0.0433362 33.0989 -39.2269 -30.8315 7.46207 12.5795 -121.022 1.63709e-005 3.08345 -6.47849 -3.9155 -1.89004 38.8039 28.6683 -38.3413 -67.5455 
-0.0030303 0.875499 -0.00359 81.0998 -62.173 80.3879 17.1595 1.64864 -8.44532 14.1424 6.61421 24.5667 -5.11845 -10.7133 19.2732 1.56691e-006 3.15522e-007 -0.481441 2.26109 -11.5209 -13.9609 -14.0849 -9.34656 32.9145 2.46203 3.38283 8.92012 -8.34388e-007 -5.79131e-007 26.8662 1.03538 -2.94982 9.67853 4.51268 3.24022 3.99627 -0 0 -0 -9.2205 -11.6389 -1.87572 36.0324 29.2855 -22.8842 -3.60442 -4.43583 -129.161 -2.2536e-006 6.56286 -18.209 2.695 0.652261 -0.0306996 33.9006 -39.0831 -30.7955 7.19916 12.2188 -120.83 4.21989e-006 3.16514 -6.5699 -3.84864 -2.20604 38.7729 29.1284 -38.3111 -66.9512 
-0.000444931 0.880633 -0.001022 81.5376 -62.1994 80.8818 16.3786 1.9942 -7.8267 15.3661 6.64604 22.8383 -5.07408 -11.555 21.0936 2.77387e-006 -4.10649e-006 -0.17746 2.10883 -11.1029 -13.2347 -15.012 -9.31955 31.1263 3.02662 4.35466 10.1487 -2.10622e-006 -9.79576e-007 26.946 0.947211 -2.86027 9.28696 4.65247 3.29943 3.93697 -0 0 -0 -9.31807 -11.6021 -1.89001 36.4253 29.6391 -22.306 -3.84933 -4.7218 -129.262 5.54688e-006 6.77158 -18.4694 2.57163 0.369038 -0.0165725 34.5976 -38.9904 -30.8698 6.92626 11.828 -120.653 -3.31608e-006 3.1995 -6.73012 -3.88866 -2.53408 38.7694 29.5149 -38.2936 -66.5473 
0.00228361 0.885718 0.002189 81.8914 -62.2685 81.335 15.7053 2.35623 -7.2557 16.5104 6.58223 21.1426 -4.95276 -12.4344 23.0772 -3.44608e-006 -3.58588e-006 0.0707436 2.05142 -10.7354 -12.4623 -15.965 -9.20902 29.2228 3.62477 5.49029 11.4911 -1.643e-007 -1.81477e-006 26.7065 0.943744 -2.82916 8.87813 4.85268 3.35043 3.87574 -0 0 -0 -9.55744 -11.4954 -1.92185 36.8537 29.9344 -21.7186 -4.028 -4.94137 -129.267 1.03469e-006 7.12642 -18.6827 2.4269 0.049081 -0.00207954 35.122 -38.9661 -31.0863 6.78774 11.6392 -120.54 2.18098e-006 3.1734 -6.8192 -4.00351 -2.8065 38.7896 29.782 -38.291 -66.2988 
0.00502651 0.890389 0.006003 82.2061 -62.3947 81.8152 15.0821 2.73817 -6.82254 17.5757 6.47552 19.5981 -4.76055 -13.279 25.071 -3.44439e-006 7.29109e-007 0.267592 2.08669 -10.4047 -11.7368 -16.8785 -9.01906 27.3238 4.24313 6.77507 12.8343 -2.0258e-006 7.945e-007 26.3031 1.00325 -2.79401 8.41605 5.09996 3.3634 3.81799 -0 0 -0 -9.86321 -11.3712 -1.96334 37.3145 30.195 -21.2145 -4.13308 -5.09357 -129.143 1.4235e-006 7.48322 -18.8499 2.28383 -0.312177 0.0124474 35.4939 -39.0328 -31.4599 6.78053 11.6727 -120.441 -1.21863e-005 3.05389 -6.88514 -4.12541 -3.00786 38.8608 29.9082 -38.3461 -66.2023 
0.0077182 0.894389 0.01033 82.5261 -62.5427 82.338 14.4604 3.14304 -6.54373 18.5645 6.37025 18.2819 -4.51259 -13.9723 26.8992 1.07414e-005 -5.01443e-006 0.465839 2.0347 -10.0796 -11.1204 -17.5125 -8.68921 25.5843 4.77523 7.99636 14.0148 1.03959e-007 -3.82652e-007 25.9184 1.06214 -2.74208 7.94562 5.3652 3.35301 3.75828 -0 0 -0 -10.1677 -11.2761 -2.00848 37.8321 30.4385 -20.8883 -4.14228 -5.15538 -128.868 9.64612e-006 7.7745 -19.0053 2.15722 -0.720787 0.0271487 35.7687 -39.2407 -32.0249 6.72281 11.6635 -120.246 6.04601e-006 2.71842 -7.07163 -4.17647 -3.15651 39.006 29.8662 -38.4853 -66.2944 
0.010347 0.897564 0.01509 82.8613 -62.6608 82.8593 13.8365 3.57169 -6.38652 19.4818 6.29678 17.2253 -4.25106 -14.5045 28.4699 -4.18108e-006 3.26991e-006 0.639057 1.76801 -9.74439 -10.6075 -17.7595 -8.23461 24.0935 5.23488 9.09021 14.8897 -9.46998e-007 1.06354e-007 25.6937 1.07466 -2.69016 7.54828 5.62101 3.32974 3.6809 -0 0 -0 -10.4528 -11.2062 -2.05337 38.4231 30.6486 -20.7761 -4.09603 -5.17778 -128.432 3.1702e-006 7.92305 -19.1883 2.04899 -1.12533 0.0402585 35.8426 -39.6454 -32.8661 6.69286 11.7244 -120.006 1.01121e-005 2.44799 -7.17959 -4.16779 -3.24455 39.2193 29.7017 -38.7176 -66.5278 
0.0128972 0.899761 0.020219 83.16 -62.7203 83.2885 13.2641 4.0009 -6.34494 20.2881 6.28713 16.5011 -4.01514 -14.8817 29.7138 -7.31044e-006 9.25645e-006 0.765068 1.21748 -9.41348 -10.2038 -17.5674 -7.70035 22.9396 5.63444 9.99494 15.3847 -1.51482e-007 7.77014e-007 25.5758 1.06558 -2.69964 7.27229 5.83653 3.34101 3.57814 -0 0 -0 -10.7268 -11.1546 -2.09882 39.0243 30.8159 -20.8458 -3.99482 -5.15816 -127.839 4.91502e-007 8.01106 -19.3282 1.93101 -1.47305 0.0496568 35.6846 -40.2973 -33.993 6.62267 11.732 -119.727 2.42102e-006 2.25693 -7.21671 -4.14236 -3.29543 39.4725 29.4894 -38.9719 -66.8387 
0.0153351 0.900857 0.025705 83.3834 -62.7504 83.5841 12.8716 4.41941 -6.4762 20.8912 6.37683 16.2245 -3.84017 -15.1355 30.5826 -7.46113e-006 -4.93153e-006 0.816105 0.44528 -9.0899 -9.94838 -16.9317 -7.13858 22.2056 5.95631 10.6057 15.452 -1.60542e-006 1.33287e-006 25.5227 1.08374 -2.7506 7.10407 5.98483 3.34337 3.47357 -0 0 -0 -10.9959 -11.1005 -2.14244 39.6352 30.9365 -21.0806 -3.84161 -5.08947 -127.124 4.07956e-006 8.06304 -19.327 1.82327 -1.70227 0.0541822 35.272 -41.2184 -35.3745 6.51425 11.6795 -119.426 7.70718e-006 2.05488 -7.25779 -4.13344 -3.32484 39.7252 29.3008 -39.1853 -67.1522 
0.0175652 0.900793 0.03155 83.5 -62.8073 83.7364 12.6791 4.82014 -6.83868 21.2767 6.60996 16.4675 -3.7493 -15.3315 31.08 -3.69898e-007 1.10039e-006 0.731318 -0.381802 -8.77732 -9.91189 -16.0209 -6.65071 21.9664 6.26462 10.9978 15.0825 9.15998e-007 7.02286e-007 25.5392 1.15677 -2.81258 7.01597 6.08739 3.28554 3.39659 -0 0 -0 -11.2717 -11.0392 -2.18554 40.2917 31.0102 -21.4867 -3.65921 -4.98554 -126.349 1.74529e-005 8.05649 -19.1947 1.75258 -1.79524 0.0549221 34.5329 -42.3535 -37.0114 6.52303 11.8212 -119.168 -6.92052e-006 1.97829 -7.22062 -4.14552 -3.30886 39.9265 29.1601 -39.3423 -67.3894 
